<svg viewBox="0 0 700 475" xmlns="http://www.w3.org/2000/svg" font-family="sans-serif">
  <defs>
    <marker id="arrGray5" viewBox="0 0 10 10" refX="9" refY="5" markerWidth="7" markerHeight="7" orient="auto-start-reverse">
      <path d="M0,0 L10,5 L0,10 z" fill="#6B7280"/>
    </marker>
  </defs>

  <!-- axes -->
  <line x1="80" y1="400" x2="670" y2="400" stroke="#6B7280" stroke-width="2" marker-end="url(#arrGray5)"/>
  <line x1="80" y1="400" x2="80" y2="55" stroke="#6B7280" stroke-width="2" marker-end="url(#arrGray5)"/>
  <text x="375" y="452" font-size="14" fill="#1a1a1a" text-anchor="middle">원자 번호 <tspan font-style="italic">Z</tspan></text>
  <text x="34" y="45" font-size="14" fill="#1a1a1a">&#8730;f (10<tspan font-size="10" baseline-shift="super">9</tspan> Hz<tspan font-size="10" baseline-shift="super">1/2</tspan>)</text>

  <!-- x ticks -->
  <line x1="192" y1="400" x2="192" y2="406" stroke="#6B7280" stroke-width="1"/>
  <text x="192" y="422" font-size="12" fill="#6B7280" text-anchor="middle">10</text>
  <line x1="304" y1="400" x2="304" y2="406" stroke="#6B7280" stroke-width="1"/>
  <text x="304" y="422" font-size="12" fill="#6B7280" text-anchor="middle">20</text>
  <line x1="416" y1="400" x2="416" y2="406" stroke="#6B7280" stroke-width="1"/>
  <text x="416" y="422" font-size="12" fill="#6B7280" text-anchor="middle">30</text>
  <line x1="528" y1="400" x2="528" y2="406" stroke="#6B7280" stroke-width="1"/>
  <text x="528" y="422" font-size="12" fill="#6B7280" text-anchor="middle">40</text>
  <line x1="640" y1="400" x2="640" y2="406" stroke="#6B7280" stroke-width="1"/>
  <text x="640" y="422" font-size="12" fill="#6B7280" text-anchor="middle">50</text>

  <!-- y ticks -->
  <line x1="74" y1="336" x2="80" y2="336" stroke="#6B7280" stroke-width="1"/>
  <text x="68" y="341" font-size="12" fill="#6B7280" text-anchor="end">0.5</text>
  <line x1="74" y1="272" x2="80" y2="272" stroke="#6B7280" stroke-width="1"/>
  <text x="68" y="277" font-size="12" fill="#6B7280" text-anchor="end">1.0</text>
  <line x1="74" y1="208" x2="80" y2="208" stroke="#6B7280" stroke-width="1"/>
  <text x="68" y="213" font-size="12" fill="#6B7280" text-anchor="end">1.5</text>
  <line x1="74" y1="144" x2="80" y2="144" stroke="#6B7280" stroke-width="1"/>
  <text x="68" y="149" font-size="12" fill="#6B7280" text-anchor="end">2.0</text>
  <line x1="74" y1="80" x2="80" y2="80" stroke="#6B7280" stroke-width="1"/>
  <text x="68" y="85" font-size="12" fill="#6B7280" text-anchor="end">2.5</text>

  <!-- fitted line: solid Z=10..49, dashed extrapolation to Z=1 -->
  <line x1="192" y1="342.9" x2="628.8" y2="95.3" stroke="#8B0029" stroke-width="2"/>
  <line x1="91.2" y1="400" x2="192" y2="342.9" stroke="#8B0029" stroke-width="1.5" stroke-dasharray="5 4"/>

  <!-- data points -->
  <circle cx="225.6" cy="323.8" r="4" fill="#8B0029"/>
  <circle cx="236.8" cy="317.5" r="4" fill="#8B0029"/>
  <circle cx="270.4" cy="298.4" r="4" fill="#8B0029"/>
  <circle cx="292.8" cy="285.7" r="4" fill="#8B0029"/>
  <circle cx="304" cy="279.4" r="4" fill="#8B0029"/>
  <circle cx="326.4" cy="266.7" r="4" fill="#8B0029"/>
  <circle cx="337.6" cy="260.3" r="4" fill="#8B0029"/>
  <circle cx="348.8" cy="254.0" r="4" fill="#8B0029"/>
  <circle cx="360" cy="247.6" r="4" fill="#8B0029"/>
  <circle cx="371.2" cy="241.3" r="4" fill="#8B0029"/>
  <circle cx="382.4" cy="234.9" r="4" fill="#8B0029"/>
  <circle cx="393.6" cy="228.6" r="4" fill="#8B0029"/>
  <circle cx="404.8" cy="222.2" r="4" fill="#8B0029"/>
  <circle cx="416" cy="215.9" r="4" fill="#8B0029"/>
  <circle cx="516.8" cy="158.7" r="4" fill="#8B0029"/>
  <circle cx="528" cy="152.4" r="4" fill="#8B0029"/>
  <circle cx="539.2" cy="146.0" r="4" fill="#8B0029"/>
  <circle cx="550.4" cy="139.7" r="4" fill="#8B0029"/>
  <circle cx="572.8" cy="127.0" r="4" fill="#8B0029"/>
  <circle cx="595.2" cy="114.3" r="4" fill="#8B0029"/>
  <circle cx="606.4" cy="107.9" r="4" fill="#8B0029"/>

  <!-- element labels (subset) -->
  <text x="222" y="343" font-size="12" fill="#6B7280" text-anchor="middle">Al</text>
  <text x="272" y="318" font-size="12" fill="#6B7280" text-anchor="middle">Cl</text>
  <text x="296" y="305" font-size="12" fill="#6B7280" text-anchor="middle">K</text>
  <text x="330" y="286" font-size="12" fill="#6B7280" text-anchor="middle">Ti</text>
  <text x="376" y="261" font-size="12" fill="#6B7280" text-anchor="middle">Fe</text>
  <text x="422" y="236" font-size="12" fill="#6B7280" text-anchor="middle">Zn</text>
  <text x="526" y="174" font-size="12" fill="#6B7280" text-anchor="middle">Zr</text>
  <text x="548" y="127" font-size="12" fill="#6B7280" text-anchor="middle">Mo</text>
  <text x="612" y="96" font-size="12" fill="#6B7280" text-anchor="middle">Ag</text>

  <!-- law annotation -->
  <text x="200" y="120" font-size="16" font-weight="bold" fill="#8B0029">&#8730;f = C(Z &#8722; 1)</text>
  <text x="200" y="144" font-size="13" fill="#6B7280">C = 4.96 &#215; 10&#8311; Hz<tspan font-size="10" baseline-shift="super">1/2</tspan></text>
  <text x="200" y="168" font-size="13" fill="#6B7280">직선 &#8594; 원소의 자리는 Z가 결정</text>
</svg>
